<?xml version="1.0" encoding="UTF-8" standalone="no"?>
<!-- Created with Inkscape (http://www.inkscape.org/) -->

<svg
   xmlns:dc="http://purl.org/dc/elements/1.1/"
   xmlns:cc="http://creativecommons.org/ns#"
   xmlns:rdf="http://www.w3.org/1999/02/22-rdf-syntax-ns#"
   xmlns:svg="http://www.w3.org/2000/svg"
   xmlns="http://www.w3.org/2000/svg"
   xmlns:sodipodi="http://sodipodi.sourceforge.net/DTD/sodipodi-0.dtd"
   xmlns:inkscape="http://www.inkscape.org/namespaces/inkscape"
   width="1056"
   height="461.15625"
   id="svg2"
   version="1.1"
   inkscape:version="0.48.4 r9939"
   sodipodi:docname="motifs.svg">
  <defs
     id="defs4" />
  <sodipodi:namedview
     id="base"
     pagecolor="#ffffff"
     bordercolor="#666666"
     borderopacity="1.0"
     inkscape:pageopacity="0.0"
     inkscape:pageshadow="2"
     inkscape:zoom="0.35"
     inkscape:cx="463.53164"
     inkscape:cy="-169.32661"
     inkscape:document-units="px"
     inkscape:current-layer="layer1"
     showgrid="false"
     inkscape:snap-object-midpoints="true"
     inkscape:snap-bbox="true"
     fit-margin-top="0"
     fit-margin-left="0"
     fit-margin-right="0"
     fit-margin-bottom="0"
     inkscape:window-width="1920"
     inkscape:window-height="1173"
     inkscape:window-x="0"
     inkscape:window-y="0"
     inkscape:window-maximized="1" />
  <metadata
     id="metadata7">
    <rdf:RDF>
      <cc:Work
         rdf:about="">
        <dc:format>image/svg+xml</dc:format>
        <dc:type
           rdf:resource="http://purl.org/dc/dcmitype/StillImage" />
        <dc:title></dc:title>
      </cc:Work>
    </rdf:RDF>
  </metadata>
  <g
     inkscape:label="Layer 1"
     inkscape:groupmode="layer"
     id="layer1"
     transform="translate(0.5625,-296.0625)">
    <rect
       style="fill:none;stroke:#000000;stroke-width:4;stroke-miterlimit:4;stroke-opacity:1;stroke-dasharray:none"
       id="rect2991"
       width="262.85715"
       height="228.57143"
       x="1.4285715"
       y="298.07645" />
    <rect
       y="298.07645"
       x="264.15448"
       height="228.57143"
       width="262.85715"
       id="rect3764"
       style="fill:none;stroke:#000000;stroke-width:4;stroke-miterlimit:4;stroke-opacity:1;stroke-dasharray:none" />
    <rect
       y="298.07645"
       x="527.85718"
       height="228.57143"
       width="262.85715"
       id="rect3766"
       style="fill:none;stroke:#000000;stroke-width:4;stroke-miterlimit:4;stroke-opacity:1;stroke-dasharray:none" />
    <rect
       style="fill:none;stroke:#000000;stroke-width:4;stroke-miterlimit:4;stroke-opacity:1;stroke-dasharray:none"
       id="rect3768"
       width="262.85715"
       height="228.57143"
       x="790.58307"
       y="298.07645" />
    <rect
       y="526.64789"
       x="1.4285715"
       height="228.57143"
       width="262.85715"
       id="rect3770"
       style="fill:none;stroke:#000000;stroke-width:4;stroke-miterlimit:4;stroke-opacity:1;stroke-dasharray:none" />
    <rect
       style="fill:none;stroke:#000000;stroke-width:4;stroke-miterlimit:4;stroke-opacity:1;stroke-dasharray:none"
       id="rect3772"
       width="262.85715"
       height="228.57143"
       x="264.15448"
       y="526.64789" />
    <rect
       style="fill:none;stroke:#000000;stroke-width:4;stroke-miterlimit:4;stroke-opacity:1;stroke-dasharray:none"
       id="rect3774"
       width="262.85715"
       height="228.57143"
       x="527.85718"
       y="526.64789" />
    <rect
       y="526.64789"
       x="790.58307"
       height="228.57143"
       width="262.85715"
       id="rect3776"
       style="fill:none;stroke:#000000;stroke-width:4;stroke-miterlimit:4;stroke-opacity:1;stroke-dasharray:none" />
    <rect
       y="298.07645"
       x="1.4285715"
       height="228.57143"
       width="262.85715"
       id="rect3778"
       style="fill:none;stroke:#000000;stroke-width:4;stroke-miterlimit:4;stroke-opacity:1;stroke-dasharray:none" />
    <rect
       style="fill:none;stroke:#000000;stroke-width:4;stroke-miterlimit:4;stroke-opacity:1;stroke-dasharray:none"
       id="rect3780"
       width="262.85715"
       height="228.57143"
       x="264.15448"
       y="298.07645" />
    <rect
       style="fill:none;stroke:#000000;stroke-width:4;stroke-miterlimit:4;stroke-opacity:1;stroke-dasharray:none"
       id="rect3782"
       width="262.85715"
       height="228.57143"
       x="527.85718"
       y="298.07645" />
    <rect
       y="298.07645"
       x="790.58307"
       height="228.57143"
       width="262.85715"
       id="rect3784"
       style="fill:none;stroke:#000000;stroke-width:4;stroke-miterlimit:4;stroke-opacity:1;stroke-dasharray:none" />
    <rect
       style="fill:none;stroke:#000000;stroke-width:4;stroke-miterlimit:4;stroke-opacity:1;stroke-dasharray:none"
       id="rect3786"
       width="262.85715"
       height="228.57143"
       x="1.4285715"
       y="526.64789" />
    <rect
       y="526.64789"
       x="264.15448"
       height="228.57143"
       width="262.85715"
       id="rect3788"
       style="fill:none;stroke:#000000;stroke-width:4;stroke-miterlimit:4;stroke-opacity:1;stroke-dasharray:none" />
    <rect
       y="526.64789"
       x="527.85718"
       height="228.57143"
       width="262.85715"
       id="rect3790"
       style="fill:none;stroke:#000000;stroke-width:4;stroke-miterlimit:4;stroke-opacity:1;stroke-dasharray:none" />
    <rect
       style="fill:none;stroke:#000000;stroke-width:4;stroke-miterlimit:4;stroke-opacity:1;stroke-dasharray:none"
       id="rect3792"
       width="262.85715"
       height="228.57143"
       x="790.58307"
       y="526.64789" />
    <path
       style="fill:none;stroke:#000000;stroke-width:5;stroke-linecap:butt;stroke-linejoin:miter;stroke-miterlimit:4;stroke-opacity:1;stroke-dasharray:none"
       d="m 63.520664,465.21933 66.428576,-105.71429 66.42857,105.71429 0,0"
       id="path3810"
       inkscape:connector-curvature="0" />
    <path
       style="fill:none;stroke:#000000;stroke-width:5;stroke-linecap:butt;stroke-linejoin:miter;stroke-miterlimit:4;stroke-opacity:1;stroke-dasharray:none"
       d="M 63.520664,692.50365 129.94924,586.78936 196.37781,692.50365 z"
       id="path3812"
       inkscape:connector-curvature="0" />
    <path
       style="fill:none;stroke:#000000;stroke-width:5;stroke-linecap:butt;stroke-linejoin:miter;stroke-miterlimit:4;stroke-opacity:1;stroke-dasharray:none"
       d="M 329.95945,465.21933 459.25898,359.50504"
       id="path3837"
       inkscape:connector-curvature="0" />
    <path
       style="fill:none;stroke:#000000;stroke-width:5;stroke-linecap:butt;stroke-linejoin:miter;stroke-miterlimit:4;stroke-opacity:1;stroke-dasharray:none"
       d="m 459.25898,359.50504 -129.29953,0 0,105.71429 129.29953,0 z"
       id="path3833"
       inkscape:connector-curvature="0" />
    <path
       style="fill:none;stroke:#000000;stroke-width:5;stroke-linecap:butt;stroke-linejoin:miter;stroke-miterlimit:4;stroke-opacity:1;stroke-dasharray:none"
       d="M 329.95945,359.50504 459.25898,465.21933"
       id="path3835"
       inkscape:connector-curvature="0" />
    <path
       inkscape:connector-curvature="0"
       id="path3904"
       d="M 329.95945,359.50504 459.25898,465.21933"
       style="fill:none;stroke:#000000;stroke-width:5;stroke-linecap:butt;stroke-linejoin:miter;stroke-miterlimit:4;stroke-opacity:1;stroke-dasharray:none" />
    <path
       inkscape:connector-curvature="0"
       id="path3908"
       d="m 460.2328,588.07645 -129.29953,0 0,105.71429 129.29953,0 z"
       style="fill:none;stroke:#000000;stroke-width:5;stroke-linecap:butt;stroke-linejoin:miter;stroke-miterlimit:4;stroke-opacity:1;stroke-dasharray:none" />
    <path
       inkscape:connector-curvature="0"
       id="path3910"
       d="M 330.93327,588.07645 460.2328,693.79074"
       style="fill:none;stroke:#000000;stroke-width:5;stroke-linecap:butt;stroke-linejoin:miter;stroke-miterlimit:4;stroke-opacity:1;stroke-dasharray:none" />
    <path
       style="fill:none;stroke:#000000;stroke-width:5;stroke-linecap:butt;stroke-linejoin:miter;stroke-miterlimit:4;stroke-opacity:1;stroke-dasharray:none"
       d="M 330.93327,588.07645 460.2328,693.79074"
       id="path3912"
       inkscape:connector-curvature="0" />
    <path
       style="fill:none;stroke:#000000;stroke-width:5;stroke-linecap:butt;stroke-linejoin:miter;stroke-miterlimit:4;stroke-opacity:1;stroke-dasharray:none"
       d="m 723.93553,588.07645 -129.29953,0 0,105.71429 129.29953,0"
       id="path3916"
       inkscape:connector-curvature="0"
       sodipodi:nodetypes="cccc" />
    <path
       inkscape:connector-curvature="0"
       id="path3924"
       d="m 723.93553,359.50502 -129.29953,0 0,105.71429 129.29953,0 z"
       style="fill:none;stroke:#000000;stroke-width:5;stroke-linecap:butt;stroke-linejoin:miter;stroke-miterlimit:4;stroke-opacity:1;stroke-dasharray:none" />
    <path
       style="fill:none;stroke:#000000;stroke-width:5;stroke-linecap:butt;stroke-linejoin:miter;stroke-miterlimit:4;stroke-opacity:1;stroke-dasharray:none"
       d="m 986.66139,465.21931 0,-105.71429 -129.29953,0 0,105.71429"
       id="path3932"
       inkscape:connector-curvature="0"
       sodipodi:nodetypes="cccc" />
    <path
       style="fill:none;stroke:#000000;stroke-width:5;stroke-linecap:butt;stroke-linejoin:miter;stroke-miterlimit:4;stroke-opacity:1;stroke-dasharray:none"
       d="M 857.36186,359.50502 986.66139,465.21931"
       id="path3934"
       inkscape:connector-curvature="0" />
    <path
       inkscape:connector-curvature="0"
       id="path3940"
       d="m 986.66139,588.07645 -129.29953,0 0,105.71429"
       style="fill:none;stroke:#000000;stroke-width:5;stroke-linecap:butt;stroke-linejoin:miter;stroke-miterlimit:4;stroke-opacity:1;stroke-dasharray:none"
       sodipodi:nodetypes="ccc" />
    <path
       inkscape:connector-curvature="0"
       id="path3942"
       d="M 857.36186,588.07645 986.66139,693.79074"
       style="fill:none;stroke:#000000;stroke-width:5;stroke-linecap:butt;stroke-linejoin:miter;stroke-miterlimit:4;stroke-opacity:1;stroke-dasharray:none" />
  </g>
  <g
     inkscape:groupmode="layer"
     id="layer3"
     inkscape:label="g"
     sodipodi:insensitive="true"
     transform="translate(0.5625,-296.0625)" />
  <g
     inkscape:groupmode="layer"
     id="layer2"
     inkscape:label="vs"
     sodipodi:insensitive="true"
     transform="translate(0.5625,-296.0625)">
    <g
       id="g3798"
       transform="translate(-5.0507627,0)">
      <path
         d="m 108.57143,115.21932 c 0,9.46774 -7.67512,17.14286 -17.142856,17.14286 -9.467739,0 -17.142857,-7.67512 -17.142857,-17.14286 0,-9.46774 7.675118,-17.142854 17.142857,-17.142854 9.467736,0 17.142856,7.675114 17.142856,17.142854 z"
         sodipodi:ry="17.142857"
         sodipodi:rx="17.142857"
         sodipodi:cy="115.21932"
         sodipodi:cx="91.428574"
         id="path2989"
         style="fill:#cc1d1d;fill-opacity:1;stroke:none"
         sodipodi:type="arc"
         transform="matrix(1.25,0,0,1.25,87.142853,321.19518)" />
      <path
         transform="matrix(1.25,0,0,1.25,-45.71429,321.19518)"
         sodipodi:type="arc"
         style="fill:#cc1d1d;fill-opacity:1;stroke:none"
         id="path3794"
         sodipodi:cx="91.428574"
         sodipodi:cy="115.21932"
         sodipodi:rx="17.142857"
         sodipodi:ry="17.142857"
         d="m 108.57143,115.21932 c 0,9.46774 -7.67512,17.14286 -17.142856,17.14286 -9.467739,0 -17.142857,-7.67512 -17.142857,-17.14286 0,-9.46774 7.675118,-17.142854 17.142857,-17.142854 9.467736,0 17.142856,7.675114 17.142856,17.142854 z" />
    </g>
    <path
       transform="matrix(1.25,0,0,1.25,15.663518,215.48089)"
       sodipodi:type="arc"
       style="fill:#cc1d1d;fill-opacity:1;stroke:none"
       id="path3796"
       sodipodi:cx="91.428574"
       sodipodi:cy="115.21932"
       sodipodi:rx="17.142857"
       sodipodi:ry="17.142857"
       d="m 108.57143,115.21932 c 0,9.46774 -7.67512,17.14286 -17.142856,17.14286 -9.467739,0 -17.142857,-7.67512 -17.142857,-17.14286 0,-9.46774 7.675118,-17.142854 17.142857,-17.142854 9.467736,0 17.142856,7.675114 17.142856,17.142854 z" />
    <g
       id="g3855">
      <g
         transform="translate(-5.0507627,227.28432)"
         id="g3802">
        <path
           d="m 108.57143,115.21932 c 0,9.46774 -7.67512,17.14286 -17.142856,17.14286 -9.467739,0 -17.142857,-7.67512 -17.142857,-17.14286 0,-9.46774 7.675118,-17.142854 17.142857,-17.142854 9.467736,0 17.142856,7.675114 17.142856,17.142854 z"
           sodipodi:ry="17.142857"
           sodipodi:rx="17.142857"
           sodipodi:cy="115.21932"
           sodipodi:cx="91.428574"
           id="path3804"
           style="fill:#cc1d1d;fill-opacity:1;stroke:none"
           sodipodi:type="arc"
           transform="matrix(1.25,0,0,1.25,87.142853,321.19518)" />
        <path
           transform="matrix(1.25,0,0,1.25,-45.71429,321.19518)"
           sodipodi:type="arc"
           style="fill:#cc1d1d;fill-opacity:1;stroke:none"
           id="path3806"
           sodipodi:cx="91.428574"
           sodipodi:cy="115.21932"
           sodipodi:rx="17.142857"
           sodipodi:ry="17.142857"
           d="m 108.57143,115.21932 c 0,9.46774 -7.67512,17.14286 -17.142856,17.14286 -9.467739,0 -17.142857,-7.67512 -17.142857,-17.14286 0,-9.46774 7.675118,-17.142854 17.142857,-17.142854 9.467736,0 17.142856,7.675114 17.142856,17.142854 z" />
      </g>
      <path
         transform="matrix(1.25,0,0,1.25,15.663518,442.76521)"
         sodipodi:type="arc"
         style="fill:#cc1d1d;fill-opacity:1;stroke:none"
         id="path3808"
         sodipodi:cx="91.428574"
         sodipodi:cy="115.21932"
         sodipodi:rx="17.142857"
         sodipodi:ry="17.142857"
         d="m 108.57143,115.21932 c 0,9.46774 -7.67512,17.14286 -17.142856,17.14286 -9.467739,0 -17.142857,-7.67512 -17.142857,-17.14286 0,-9.46774 7.675118,-17.142854 17.142857,-17.142854 9.467736,0 17.142856,7.675114 17.142856,17.142854 z" />
    </g>
    <g
       id="g3839">
      <path
         transform="matrix(1.25,0,0,1.25,215.67373,215.48089)"
         sodipodi:type="arc"
         style="fill:#cc1d1d;fill-opacity:1;stroke:none"
         id="path3823"
         sodipodi:cx="91.428574"
         sodipodi:cy="115.21932"
         sodipodi:rx="17.142857"
         sodipodi:ry="17.142857"
         d="m 108.57143,115.21932 c 0,9.46774 -7.67512,17.14286 -17.142856,17.14286 -9.467739,0 -17.142857,-7.67512 -17.142857,-17.14286 0,-9.46774 7.675118,-17.142854 17.142857,-17.142854 9.467736,0 17.142856,7.675114 17.142856,17.142854 z" />
      <path
         d="m 108.57143,115.21932 c 0,9.46774 -7.67512,17.14286 -17.142856,17.14286 -9.467739,0 -17.142857,-7.67512 -17.142857,-17.14286 0,-9.46774 7.675118,-17.142854 17.142857,-17.142854 9.467736,0 17.142856,7.675114 17.142856,17.142854 z"
         sodipodi:ry="17.142857"
         sodipodi:rx="17.142857"
         sodipodi:cy="115.21932"
         sodipodi:cx="91.428574"
         id="path3825"
         style="fill:#cc1d1d;fill-opacity:1;stroke:none"
         sodipodi:type="arc"
         transform="matrix(1.25,0,0,1.25,215.67373,321.19518)" />
      <path
         transform="matrix(1.25,0,0,1.25,344.97326,321.19518)"
         sodipodi:type="arc"
         style="fill:#cc1d1d;fill-opacity:1;stroke:none"
         id="path3827"
         sodipodi:cx="91.428574"
         sodipodi:cy="115.21932"
         sodipodi:rx="17.142857"
         sodipodi:ry="17.142857"
         d="m 108.57143,115.21932 c 0,9.46774 -7.67512,17.14286 -17.142856,17.14286 -9.467739,0 -17.142857,-7.67512 -17.142857,-17.14286 0,-9.46774 7.675118,-17.142854 17.142857,-17.142854 9.467736,0 17.142856,7.675114 17.142856,17.142854 z" />
      <path
         d="m 108.57143,115.21932 c 0,9.46774 -7.67512,17.14286 -17.142856,17.14286 -9.467739,0 -17.142857,-7.67512 -17.142857,-17.14286 0,-9.46774 7.675118,-17.142854 17.142857,-17.142854 9.467736,0 17.142856,7.675114 17.142856,17.142854 z"
         sodipodi:ry="17.142857"
         sodipodi:rx="17.142857"
         sodipodi:cy="115.21932"
         sodipodi:cx="91.428574"
         id="path3829"
         style="fill:#cc1d1d;fill-opacity:1;stroke:none"
         sodipodi:type="arc"
         transform="matrix(1.25,0,0,1.25,344.97326,215.48089)" />
    </g>
    <g
       id="g3845"
       transform="translate(0,227.28432)">
      <path
         d="m 108.57143,115.21932 c 0,9.46774 -7.67512,17.14286 -17.142856,17.14286 -9.467739,0 -17.142857,-7.67512 -17.142857,-17.14286 0,-9.46774 7.675118,-17.142854 17.142857,-17.142854 9.467736,0 17.142856,7.675114 17.142856,17.142854 z"
         sodipodi:ry="17.142857"
         sodipodi:rx="17.142857"
         sodipodi:cy="115.21932"
         sodipodi:cx="91.428574"
         id="path3847"
         style="fill:#cc1d1d;fill-opacity:1;stroke:none"
         sodipodi:type="arc"
         transform="matrix(1.25,0,0,1.25,215.67373,215.48089)" />
      <path
         transform="matrix(1.25,0,0,1.25,215.67373,321.19518)"
         sodipodi:type="arc"
         style="fill:#cc1d1d;fill-opacity:1;stroke:none"
         id="path3849"
         sodipodi:cx="91.428574"
         sodipodi:cy="115.21932"
         sodipodi:rx="17.142857"
         sodipodi:ry="17.142857"
         d="m 108.57143,115.21932 c 0,9.46774 -7.67512,17.14286 -17.142856,17.14286 -9.467739,0 -17.142857,-7.67512 -17.142857,-17.14286 0,-9.46774 7.675118,-17.142854 17.142857,-17.142854 9.467736,0 17.142856,7.675114 17.142856,17.142854 z" />
      <path
         d="m 108.57143,115.21932 c 0,9.46774 -7.67512,17.14286 -17.142856,17.14286 -9.467739,0 -17.142857,-7.67512 -17.142857,-17.14286 0,-9.46774 7.675118,-17.142854 17.142857,-17.142854 9.467736,0 17.142856,7.675114 17.142856,17.142854 z"
         sodipodi:ry="17.142857"
         sodipodi:rx="17.142857"
         sodipodi:cy="115.21932"
         sodipodi:cx="91.428574"
         id="path3851"
         style="fill:#cc1d1d;fill-opacity:1;stroke:none"
         sodipodi:type="arc"
         transform="matrix(1.25,0,0,1.25,344.97326,321.19518)" />
      <path
         transform="matrix(1.25,0,0,1.25,344.97326,215.48089)"
         sodipodi:type="arc"
         style="fill:#cc1d1d;fill-opacity:1;stroke:none"
         id="path3853"
         sodipodi:cx="91.428574"
         sodipodi:cy="115.21932"
         sodipodi:rx="17.142857"
         sodipodi:ry="17.142857"
         d="m 108.57143,115.21932 c 0,9.46774 -7.67512,17.14286 -17.142856,17.14286 -9.467739,0 -17.142857,-7.67512 -17.142857,-17.14286 0,-9.46774 7.675118,-17.142854 17.142857,-17.142854 9.467736,0 17.142856,7.675114 17.142856,17.142854 z" />
    </g>
    <g
       transform="translate(264.28569,227.28432)"
       id="g3861">
      <path
         transform="matrix(1.25,0,0,1.25,215.67373,215.48089)"
         sodipodi:type="arc"
         style="fill:#cc1d1d;fill-opacity:1;stroke:none"
         id="path3863"
         sodipodi:cx="91.428574"
         sodipodi:cy="115.21932"
         sodipodi:rx="17.142857"
         sodipodi:ry="17.142857"
         d="m 108.57143,115.21932 c 0,9.46774 -7.67512,17.14286 -17.142856,17.14286 -9.467739,0 -17.142857,-7.67512 -17.142857,-17.14286 0,-9.46774 7.675118,-17.142854 17.142857,-17.142854 9.467736,0 17.142856,7.675114 17.142856,17.142854 z" />
      <path
         d="m 108.57143,115.21932 c 0,9.46774 -7.67512,17.14286 -17.142856,17.14286 -9.467739,0 -17.142857,-7.67512 -17.142857,-17.14286 0,-9.46774 7.675118,-17.142854 17.142857,-17.142854 9.467736,0 17.142856,7.675114 17.142856,17.142854 z"
         sodipodi:ry="17.142857"
         sodipodi:rx="17.142857"
         sodipodi:cy="115.21932"
         sodipodi:cx="91.428574"
         id="path3865"
         style="fill:#cc1d1d;fill-opacity:1;stroke:none"
         sodipodi:type="arc"
         transform="matrix(1.25,0,0,1.25,215.67373,321.19518)" />
      <path
         transform="matrix(1.25,0,0,1.25,344.97326,321.19518)"
         sodipodi:type="arc"
         style="fill:#cc1d1d;fill-opacity:1;stroke:none"
         id="path3867"
         sodipodi:cx="91.428574"
         sodipodi:cy="115.21932"
         sodipodi:rx="17.142857"
         sodipodi:ry="17.142857"
         d="m 108.57143,115.21932 c 0,9.46774 -7.67512,17.14286 -17.142856,17.14286 -9.467739,0 -17.142857,-7.67512 -17.142857,-17.14286 0,-9.46774 7.675118,-17.142854 17.142857,-17.142854 9.467736,0 17.142856,7.675114 17.142856,17.142854 z" />
      <path
         d="m 108.57143,115.21932 c 0,9.46774 -7.67512,17.14286 -17.142856,17.14286 -9.467739,0 -17.142857,-7.67512 -17.142857,-17.14286 0,-9.46774 7.675118,-17.142854 17.142857,-17.142854 9.467736,0 17.142856,7.675114 17.142856,17.142854 z"
         sodipodi:ry="17.142857"
         sodipodi:rx="17.142857"
         sodipodi:cy="115.21932"
         sodipodi:cx="91.428574"
         id="path3869"
         style="fill:#cc1d1d;fill-opacity:1;stroke:none"
         sodipodi:type="arc"
         transform="matrix(1.25,0,0,1.25,344.97326,215.48089)" />
    </g>
    <g
       id="g3871"
       transform="translate(528.57143,227.28432)">
      <path
         d="m 108.57143,115.21932 c 0,9.46774 -7.67512,17.14286 -17.142856,17.14286 -9.467739,0 -17.142857,-7.67512 -17.142857,-17.14286 0,-9.46774 7.675118,-17.142854 17.142857,-17.142854 9.467736,0 17.142856,7.675114 17.142856,17.142854 z"
         sodipodi:ry="17.142857"
         sodipodi:rx="17.142857"
         sodipodi:cy="115.21932"
         sodipodi:cx="91.428574"
         id="path3873"
         style="fill:#cc1d1d;fill-opacity:1;stroke:none"
         sodipodi:type="arc"
         transform="matrix(1.25,0,0,1.25,215.67373,215.48089)" />
      <path
         transform="matrix(1.25,0,0,1.25,215.67373,321.19518)"
         sodipodi:type="arc"
         style="fill:#cc1d1d;fill-opacity:1;stroke:none"
         id="path3875"
         sodipodi:cx="91.428574"
         sodipodi:cy="115.21932"
         sodipodi:rx="17.142857"
         sodipodi:ry="17.142857"
         d="m 108.57143,115.21932 c 0,9.46774 -7.67512,17.14286 -17.142856,17.14286 -9.467739,0 -17.142857,-7.67512 -17.142857,-17.14286 0,-9.46774 7.675118,-17.142854 17.142857,-17.142854 9.467736,0 17.142856,7.675114 17.142856,17.142854 z" />
      <path
         d="m 108.57143,115.21932 c 0,9.46774 -7.67512,17.14286 -17.142856,17.14286 -9.467739,0 -17.142857,-7.67512 -17.142857,-17.14286 0,-9.46774 7.675118,-17.142854 17.142857,-17.142854 9.467736,0 17.142856,7.675114 17.142856,17.142854 z"
         sodipodi:ry="17.142857"
         sodipodi:rx="17.142857"
         sodipodi:cy="115.21932"
         sodipodi:cx="91.428574"
         id="path3877"
         style="fill:#cc1d1d;fill-opacity:1;stroke:none"
         sodipodi:type="arc"
         transform="matrix(1.25,0,0,1.25,344.97326,321.19518)" />
      <path
         transform="matrix(1.25,0,0,1.25,344.97326,215.48089)"
         sodipodi:type="arc"
         style="fill:#cc1d1d;fill-opacity:1;stroke:none"
         id="path3879"
         sodipodi:cx="91.428574"
         sodipodi:cy="115.21932"
         sodipodi:rx="17.142857"
         sodipodi:ry="17.142857"
         d="m 108.57143,115.21932 c 0,9.46774 -7.67512,17.14286 -17.142856,17.14286 -9.467739,0 -17.142857,-7.67512 -17.142857,-17.14286 0,-9.46774 7.675118,-17.142854 17.142857,-17.142854 9.467736,0 17.142856,7.675114 17.142856,17.142854 z" />
    </g>
    <g
       transform="translate(528.57143,0)"
       id="g3881">
      <path
         transform="matrix(1.25,0,0,1.25,215.67373,215.48089)"
         sodipodi:type="arc"
         style="fill:#cc1d1d;fill-opacity:1;stroke:none"
         id="path3883"
         sodipodi:cx="91.428574"
         sodipodi:cy="115.21932"
         sodipodi:rx="17.142857"
         sodipodi:ry="17.142857"
         d="m 108.57143,115.21932 c 0,9.46774 -7.67512,17.14286 -17.142856,17.14286 -9.467739,0 -17.142857,-7.67512 -17.142857,-17.14286 0,-9.46774 7.675118,-17.142854 17.142857,-17.142854 9.467736,0 17.142856,7.675114 17.142856,17.142854 z" />
      <path
         d="m 108.57143,115.21932 c 0,9.46774 -7.67512,17.14286 -17.142856,17.14286 -9.467739,0 -17.142857,-7.67512 -17.142857,-17.14286 0,-9.46774 7.675118,-17.142854 17.142857,-17.142854 9.467736,0 17.142856,7.675114 17.142856,17.142854 z"
         sodipodi:ry="17.142857"
         sodipodi:rx="17.142857"
         sodipodi:cy="115.21932"
         sodipodi:cx="91.428574"
         id="path3885"
         style="fill:#cc1d1d;fill-opacity:1;stroke:none"
         sodipodi:type="arc"
         transform="matrix(1.25,0,0,1.25,215.67373,321.19518)" />
      <path
         transform="matrix(1.25,0,0,1.25,344.97326,321.19518)"
         sodipodi:type="arc"
         style="fill:#cc1d1d;fill-opacity:1;stroke:none"
         id="path3887"
         sodipodi:cx="91.428574"
         sodipodi:cy="115.21932"
         sodipodi:rx="17.142857"
         sodipodi:ry="17.142857"
         d="m 108.57143,115.21932 c 0,9.46774 -7.67512,17.14286 -17.142856,17.14286 -9.467739,0 -17.142857,-7.67512 -17.142857,-17.14286 0,-9.46774 7.675118,-17.142854 17.142857,-17.142854 9.467736,0 17.142856,7.675114 17.142856,17.142854 z" />
      <path
         d="m 108.57143,115.21932 c 0,9.46774 -7.67512,17.14286 -17.142856,17.14286 -9.467739,0 -17.142857,-7.67512 -17.142857,-17.14286 0,-9.46774 7.675118,-17.142854 17.142857,-17.142854 9.467736,0 17.142856,7.675114 17.142856,17.142854 z"
         sodipodi:ry="17.142857"
         sodipodi:rx="17.142857"
         sodipodi:cy="115.21932"
         sodipodi:cx="91.428574"
         id="path3889"
         style="fill:#cc1d1d;fill-opacity:1;stroke:none"
         sodipodi:type="arc"
         transform="matrix(1.25,0,0,1.25,344.97326,215.48089)" />
    </g>
    <g
       id="g3891"
       transform="translate(264.28566,0)">
      <path
         d="m 108.57143,115.21932 c 0,9.46774 -7.67512,17.14286 -17.142856,17.14286 -9.467739,0 -17.142857,-7.67512 -17.142857,-17.14286 0,-9.46774 7.675118,-17.142854 17.142857,-17.142854 9.467736,0 17.142856,7.675114 17.142856,17.142854 z"
         sodipodi:ry="17.142857"
         sodipodi:rx="17.142857"
         sodipodi:cy="115.21932"
         sodipodi:cx="91.428574"
         id="path3893"
         style="fill:#cc1d1d;fill-opacity:1;stroke:none"
         sodipodi:type="arc"
         transform="matrix(1.25,0,0,1.25,215.67373,215.48089)" />
      <path
         transform="matrix(1.25,0,0,1.25,215.67373,321.19518)"
         sodipodi:type="arc"
         style="fill:#cc1d1d;fill-opacity:1;stroke:none"
         id="path3895"
         sodipodi:cx="91.428574"
         sodipodi:cy="115.21932"
         sodipodi:rx="17.142857"
         sodipodi:ry="17.142857"
         d="m 108.57143,115.21932 c 0,9.46774 -7.67512,17.14286 -17.142856,17.14286 -9.467739,0 -17.142857,-7.67512 -17.142857,-17.14286 0,-9.46774 7.675118,-17.142854 17.142857,-17.142854 9.467736,0 17.142856,7.675114 17.142856,17.142854 z" />
      <path
         d="m 108.57143,115.21932 c 0,9.46774 -7.67512,17.14286 -17.142856,17.14286 -9.467739,0 -17.142857,-7.67512 -17.142857,-17.14286 0,-9.46774 7.675118,-17.142854 17.142857,-17.142854 9.467736,0 17.142856,7.675114 17.142856,17.142854 z"
         sodipodi:ry="17.142857"
         sodipodi:rx="17.142857"
         sodipodi:cy="115.21932"
         sodipodi:cx="91.428574"
         id="path3897"
         style="fill:#cc1d1d;fill-opacity:1;stroke:none"
         sodipodi:type="arc"
         transform="matrix(1.25,0,0,1.25,344.97326,321.19518)" />
      <path
         transform="matrix(1.25,0,0,1.25,344.97326,215.48089)"
         sodipodi:type="arc"
         style="fill:#cc1d1d;fill-opacity:1;stroke:none"
         id="path3899"
         sodipodi:cx="91.428574"
         sodipodi:cy="115.21932"
         sodipodi:rx="17.142857"
         sodipodi:ry="17.142857"
         d="m 108.57143,115.21932 c 0,9.46774 -7.67512,17.14286 -17.142856,17.14286 -9.467739,0 -17.142857,-7.67512 -17.142857,-17.14286 0,-9.46774 7.675118,-17.142854 17.142857,-17.142854 9.467736,0 17.142856,7.675114 17.142856,17.142854 z" />
    </g>
  </g>
</svg>
